<svg xmlns="http://www.w3.org/2000/svg" width="594.222" height="1028.299" viewBox="0 0 594.222 1028.299">
  <g id="Group_3942" data-name="Group 3942" transform="translate(19080.127 15775)">
    <path id="Path_36061" data-name="Path 36061" d="M656.067,402.078l-12.66,167.5-9.738,176.265c-13.657,7.434-27.287,5.751-40.9-.973,0,0-16.557-164.58-19.478-191.848s-6.817-145.1-6.817-145.1" transform="translate(-19394.525 -15549.889)" fill="#2f321d"/>
    <path id="Path_36062" data-name="Path 36062" d="M610.594,382.748,587.009,543.113l-6.723,171.2c-13.657,7.434-27.287,5.751-40.9-.973,0,0-19.572-159.514-22.493-186.782s-8.551-163.287-8.551-163.287" transform="translate(-19427.072 -15571.615)" fill="#2f321d"/>
    <path id="Path_36063" data-name="Path 36063" d="M747.382,523.256c22.117-48.691-39.546-147.242-39.546-147.242C675.9,316,649.082,254.779,634.526,247.906c-45.62,25.462-16.7,92.857-7.807,111.489L671.5,414.553l53.228,84.316" transform="translate(-19370.445 -15636.205)" fill="#eb9936"/>
    <path id="Path_36064" data-name="Path 36064" d="M606.85,230.062s-38.711-16.285-48.106-8.231C545.109,233.516,519.536,278.454,512,360.116s-3.9,103.228-3.9,103.228c6.817,29.215,125.626,69.143,185.03,37.98,0,0,23.063-184.832.449-232.573-4.435-9.362-48.013-25.782-48.013-25.782" transform="translate(-19427.697 -15652.056)" fill="#37c8c3"/>
    <path id="Path_36065" data-name="Path 36065" d="M589.5,233.706c-29.478,26.267-52.792,36.269-76.329,66.193L480.751,198.383c-10.392,7.178-19.737,6.026-28.469,0,0,0,13.309,154.53,45.606,167.031s96.183-43.377,102.434-55.878,26.288-68.313-10.818-75.83" transform="translate(-19458.457 -15663.932)" fill="#37c8c3"/>
    <path id="Path_36066" data-name="Path 36066" d="M662.541,379.079a62.915,62.915,0,0,1-31.227-.579c-48.766-12.821-88.3-76.318-88.3-141.828s39.533-108.222,88.3-95.4L511.305,81.891l-3.4,286.493L654.127,448.3Z" transform="translate(-19427.316 -15729.152)" fill="#484848"/>
    <path id="Path_36067" data-name="Path 36067" d="M790.786,163.373,522.156,2.348c-17.583-7.692-36.7,5.137-47.933,15.173l75.689,210.606c14.892-36.289,45.77-55.811,81.467-46.426,50.237,13.207,90.962,78.621,90.962,146.105s-40.725,111.484-90.962,98.278a80.884,80.884,0,0,1-11.824-4.171L774.089,851.906c23.816,13.4,39.527-5.812,39.107-28.474l.886-621.758c0-13.427-10.434-30.578-23.3-38.3" transform="translate(-19446.172 -15775)" fill="#484848"/>
    <path id="Path_36074" data-name="Path 36074" d="M404.872,518.51l.849,76.239,110.138-63.513-.936-74.488Z" transform="translate(-19485 -15519.281)" fill="#37c8c3" opacity="0.487"/>
    <path id="Path_36075" data-name="Path 36075" d="M766.417,170.117,494.447,13.653c-12.852-7.394-23.265-2.968-23.265,9.886V649.5c0,12.866,10.432,29.3,23.3,36.7L766.446,842.669c12.852,7.394,23.266,2.969,23.266-9.886V206.821c0-12.867-10.432-29.3-23.3-36.7M633.082,420.442c-50.236-13.207-90.962-78.621-90.962-146.1s40.727-111.485,90.962-98.278,90.962,78.619,90.962,146.1-40.727,111.485-90.962,98.278" transform="translate(-19447.875 -15769.36)" fill="#dee2e8"/>
    <path id="Path_36076" data-name="Path 36076" d="M503.767,282.268v75.061l213.42,121.083-.459-73.953Z" transform="translate(-19429.633 -15616.967)" fill="#fff"/>
    <path id="Path_36077" data-name="Path 36077" d="M502.383,347.7v75.061L715.8,543.841l-.459-73.953Z" transform="translate(-19430.408 -15580.335)" fill="#37c8c3"/>
    <path id="Path_36078" data-name="Path 36078" d="M622.14,280.956c-62.546,49.6-40.341-11.322-40.341-11.322a23.186,23.186,0,0,0,1.621-3.518,24.892,24.892,0,0,0,1.154-13.41c-.6-2.859-1.374-3.931-2.72-4.205-2.995-.686-8.849,2.391-21.957-1.758-19.071-6.018-8.932-71.752-8.932-71.752,6.789-32.124,50.977-32.4,65.486-7.062,15.912,27.837,3.3,57.021.66,70.927-2.666,13.931,5.029,42.1,5.029,42.1" transform="translate(-19404.715 -15691.118)" fill="#f9c0b5"/>
    <path id="Path_36079" data-name="Path 36079" d="M552.331,184.114s16.7,4.141,21.927-1.087c0,0,15.033,15.686,24.183,20.261,0,0,1.961,18.3,3.922,19.608s2.688-16.014,9.15-15.032c9.972,1.515,2.928,41.783,7.5,45.7s35.25-58.4,15.429-75.685c0,0-6.425-41.051-38.117-29.477-35.442,12.942-49.371-2.181-51.332,7.623s7.336,28.085,7.336,28.085" transform="translate(-19406.701 -15693.064)" fill="#4a4a4a"/>
    <path id="Path_36080" data-name="Path 36080" d="M480.752,223.647s-.9-9.476,1.434-12.588c4.174-5.566,21.915-19.48,18.088-26.089-2.591-4.475-18.088,16.7-18.088,11.131s5.218-7.653,8.7-24-3.223-17.987-8-18.782c-10.436-1.739-23.654,35.131-25.741,40.7s-4.857,29.633-4.857,29.633,2.8,6.555,13.267,5.324,15.2-5.324,15.2-5.324" transform="translate(-19458.455 -15689.195)" fill="#f9c0b5"/>
    <path id="Path_36081" data-name="Path 36081" d="M708.8,407.6c-3.848-3.185-13.627-15.4-18.246-8.144s5.94,11.22,3.959,15.839-23.757-13.2-28.377-1.98-6.5,30.2,21.779,36.3a29.221,29.221,0,0,0,29.254-9.93s3.195-22.51-8.369-32.082" transform="translate(-19340.234 -15552.628)" fill="#f9c0b5"/>
    <path id="Path_36082" data-name="Path 36082" d="M600.041,621.836s-58.188,40.518-44.464,51.585S592.763,684.488,632.6,653.5c16.811-13.073,8.339-30.69,8.339-30.69" transform="translate(-19401.799 -15426.853)"/>
    <path id="Path_36083" data-name="Path 36083" d="M545.208,586.759s-58.188,40.518-44.464,51.585,37.186,11.067,77.026-19.921c16.811-13.073,8.339-30.69,8.339-30.69" transform="translate(-19432.498 -15446.491)"/>
    <path id="Path_36084" data-name="Path 36084" d="M753.068,589.47c0,31.715,22.871,63.509,51.082,71.011s51.083-12.122,51.083-43.837-22.871-63.509-51.083-71.011-51.082,12.122-51.082,43.837" transform="translate(-19341.139 -15437.939)" fill="#37c8c3" opacity="0.428"/>
    <path id="Path_36085" data-name="Path 36085" d="M588.1,210.177s-11.6,19.264-16.736,22.149a24.9,24.9,0,0,0,1.154-13.41c-.605-2.858-1.374-3.929-2.72-4.2a1.682,1.682,0,0,1,.055-.248Z" transform="translate(-19392.66 -15657.328)" fill="#edb6ae"/>
  </g>
</svg>
