<svg id="Group_1002" data-name="Group 1002" xmlns="http://www.w3.org/2000/svg" width="106.595" height="106.595" viewBox="0 0 106.595 106.595">
  <circle id="Ellipse_105" data-name="Ellipse 105" cx="53.298" cy="53.298" r="53.298" fill="#37c8c3"/>
  <g id="Group_1001" data-name="Group 1001" transform="translate(23.303 29.532)">
    <path id="Path_2261" data-name="Path 2261" d="M2582.976,5760.594c-.1.434-.179.869-.294,1.3a8.765,8.765,0,0,1-8.625,6.519q-9.342.016-18.683,0-11.715,0-23.43,0a8.781,8.781,0,0,1-8.943-8.8q-.019-11.186-.006-22.374a8.74,8.74,0,0,1,8.8-8.825c2.363-.021,4.725,0,7.088-.008,1.038,0,1.334-.216,1.662-1.2.223-.667.43-1.337.665-2a6.168,6.168,0,0,1,5.892-4.288q5.885-.064,11.773,0a6.171,6.171,0,0,1,5.888,4.295c.253.717.479,1.441.727,2.161a1.256,1.256,0,0,0,1.428,1.025c2.343.006,4.685,0,7.028,0a8.74,8.74,0,0,1,8.932,7.5.857.857,0,0,0,.1.2Zm-29.987,5.3q10.4,0,20.79,0a8.653,8.653,0,0,0,1.459-.079,6.25,6.25,0,0,0,5.245-6.435q.013-10.95,0-21.9a7.54,7.54,0,0,0-.16-1.627,6.169,6.169,0,0,0-6.156-4.919c-2.4-.025-4.8,0-7.2-.006a3.791,3.791,0,0,1-3.865-2.8c-.244-.72-.469-1.445-.725-2.162a3.629,3.629,0,0,0-3.5-2.53q-5.886-.028-11.771,0a3.627,3.627,0,0,0-3.5,2.54c-.247.7-.471,1.4-.706,2.1a3.811,3.811,0,0,1-3.95,2.845c-2.284,0-4.568,0-6.853,0a7.869,7.869,0,0,0-1.4.09,6.254,6.254,0,0,0-5.2,6.467q-.01,10.92,0,21.843a7.655,7.655,0,0,0,.155,1.629,6.2,6.2,0,0,0,6.321,4.935Q2542.475,5765.907,2552.989,5765.894Z" transform="translate(-2522.989 -5720.887)" fill="#fff"/>
    <path id="Path_2262" data-name="Path 2262" d="M2546.73,5758.166a15,15,0,1,1,14.977-14.987A15.021,15.021,0,0,1,2546.73,5758.166Zm-.392-2.5a12.5,12.5,0,1,0-12.12-12.9A12.534,12.534,0,0,0,2546.339,5755.666Z" transform="translate(-2516.716 -5715.648)" fill="#fff"/>
    <path id="Path_2263" data-name="Path 2263" d="M2534.635,5740.729a10.009,10.009,0,0,1,9.8-9.638,1.27,1.27,0,0,1,1.428,1.213c.016.748-.545,1.244-1.436,1.275a7.519,7.519,0,0,0-7.307,7.259c-.029.94-.524,1.509-1.289,1.481s-1.214-.608-1.195-1.557Z" transform="translate(-2514.619 -5713.551)" fill="#fff"/>
  </g>
</svg>
