<svg xmlns="http://www.w3.org/2000/svg" width="30" height="30" viewBox="0 0 30 30">
  <path id="bank-finance-loan-icon" d="M.655,10.373,14.418,0,28.252,10.373Zm24.314,9.742-.316-1.539c1.355.268,3.527,3.2,4.23,4.532a13,13,0,0,1,.929,2.267c.513,2.027.019,3.923-2.05,4.365a24.278,24.278,0,0,1-5.078.222c-1.467-.08-3.735-.078-4.328-1.678-.956-2.582.8-5.658,2.394-7.541a9.176,9.176,0,0,1,.653-.692A6.245,6.245,0,0,1,23.36,18.6l-.723,1.43,1.05-1.479h.552l.731,1.568Zm-.676,1.22v.433a2.3,2.3,0,0,1,.691.176,1.373,1.373,0,0,1,.5.4,1.729,1.729,0,0,1,.262.42,1.022,1.022,0,0,1,.093.4.489.489,0,0,1-.138.347.442.442,0,0,1-.333.146.478.478,0,0,1-.479-.425.89.89,0,0,0-.6-.665v1.664c.311.09.56.174.744.248a1.585,1.585,0,0,1,.857.849,1.761,1.761,0,0,1,.125.67,1.851,1.851,0,0,1-.2.853,1.667,1.667,0,0,1-.594.651,2.019,2.019,0,0,1-.931.3v1a.987.987,0,0,1-.044.344.181.181,0,0,1-.19.108.207.207,0,0,1-.19-.087.537.537,0,0,1-.054-.273v-1.08a2.246,2.246,0,0,1-.769-.22,1.814,1.814,0,0,1-.55-.418,1.774,1.774,0,0,1-.325-.52,1.443,1.443,0,0,1-.105-.531.5.5,0,0,1,.141-.345.458.458,0,0,1,.351-.154.476.476,0,0,1,.286.083.442.442,0,0,1,.162.236,5.176,5.176,0,0,0,.176.5.992.992,0,0,0,.229.318,1.01,1.01,0,0,0,.4.22V25.119a4.466,4.466,0,0,1-.843-.33,1.449,1.449,0,0,1-.55-.517,1.607,1.607,0,0,1-.211-.864,1.583,1.583,0,0,1,.413-1.128,1.791,1.791,0,0,1,1.191-.512v-.424c0-.224.08-.336.237-.336s.241.11.241.328Zm-.478,2.744V22.547a1.3,1.3,0,0,0-.493.263.778.778,0,0,0-.012.975,1.5,1.5,0,0,0,.505.294Zm.478,1.188v1.752a1.015,1.015,0,0,0,.587-.323.856.856,0,0,0,.207-.569.7.7,0,0,0-.2-.538,1.586,1.586,0,0,0-.592-.322Zm-1.375-8.889c-.239-.749-.455-1.507-.636-2.277.677-.79,3.3-.684,4.048-.012l-.7,1.761c.375-.523.5-.738.725-1.03a2.214,2.214,0,0,1,.265.219,1.173,1.173,0,0,1,.411.695.758.758,0,0,1-.188.582l-1.6,1.98a3.3,3.3,0,0,1-.6-.162c.091-.227.2-.476.291-.7l-.582.668a2.062,2.062,0,0,0-1.549.2L21.184,16.23a.592.592,0,0,1-.139-.369c0-.5.7-.932,1.071-1.1l.8,1.612ZM0,25.51H1.6V23.931h.84v-.754h.9V14.142H1.5V11.976H23.024a3.485,3.485,0,0,0-1.838.9,1.719,1.719,0,0,0-.429.757,3.74,3.74,0,0,0-.529.443l-.059.062h-.926v5.873A13.752,13.752,0,0,0,16.9,24.248a7.916,7.916,0,0,0-.393,2.915H0V25.51ZM25.415,11.976h1.922v.814A4.169,4.169,0,0,0,25.415,11.976ZM7.648,23.931H8.69v-.754h.9V14.142H6.745v9.036h.9Zm6.249,0h1.044v-.754h.9V14.142H12.994v9.036h.9ZM9.783,7.757l4.656-3.8,4.682,3.8Z" fill="#fff" fill-rule="evenodd"/>
</svg>
