<svg xmlns="http://www.w3.org/2000/svg" width="46.847" height="31.258" viewBox="0 0 46.847 31.258">
  <g id="Group_3940" data-name="Group 3940" transform="translate(-2557.283 -975.182)" opacity="0.5">
    <path id="Path_35799" data-name="Path 35799" d="M2604.13,998.443a7.116,7.116,0,0,1-.646,1.188,2.4,2.4,0,0,1-2,.8q-7.406-.006-14.813,0h-26.654a2.679,2.679,0,0,1-1.833-.568,2.447,2.447,0,0,1-.875-1.975q.01-4.572,0-9.143V971.969a2.464,2.464,0,0,1,2.753-2.767h41.1c1.739,0,2.319.389,2.97,1.988Zm-3.1.163c-.124-.163-.2-.262-.271-.356q-3.178-3.927-6.357-7.852l-3.479-4.3a.917.917,0,0,1,.276-1.514c.422-.167.79-.026,1.178.453l8.629,10.659c.407.5.815,1,1.271,1.563V972.186c-.187.137-.324.236-.457.336l-18.394,13.794a4.265,4.265,0,0,1-5.365.029l-18.5-13.874c-.124-.093-.253-.178-.4-.28v25.064c.151-.179.25-.292.344-.409l7.594-9.38c.681-.841,1.356-1.686,2.042-2.522a.907.907,0,1,1,1.393,1.142c-.037.049-.078.094-.116.141l-9.664,11.938c-.106.132-.205.271-.335.44Zm-40.356-27.571c.15.121.229.189.313.252l18.2,13.654a2.449,2.449,0,0,0,3.085-.013l18.127-13.6c.1-.078.2-.164.363-.3Z" transform="translate(0 6)"/>
  </g>
</svg>
