<svg xmlns="http://www.w3.org/2000/svg" width="54.304" height="47.033" viewBox="0 0 54.304 47.033">
  <g id="Group_3946" data-name="Group 3946" transform="translate(16377.265 17417.668)" opacity="0.5">
    <path id="Group" d="M3378.274,1260.051a27.448,27.448,0,0,1-19.5-9.6,46,46,0,0,1-6.9-9.6,43.935,43.935,0,0,1,12.146-14.256l9.165,9.162a7.2,7.2,0,1,0,9.822,10.535c.122-.114.24-.231.353-.353l9.169,9.165A24.007,24.007,0,0,1,3378.274,1260.051Zm21.217-11.549h0l-26.257-26.276a21.943,21.943,0,0,1,5-.578h.039a27.458,27.458,0,0,1,19.5,9.6,46.021,46.021,0,0,1,6.9,9.6A44.622,44.622,0,0,1,3399.491,1248.5Z" transform="translate(-19728.387 -18635)" fill="none" stroke="#000" stroke-linecap="round" stroke-linejoin="round" stroke-width="1.5"/>
    <path id="Vector" d="M3355.818,1218.392l44.912,44.912" transform="translate(-19728.387 -18635)" fill="none" stroke="#000" stroke-linecap="round" stroke-linejoin="round" stroke-width="1.5"/>
  </g>
</svg>
