<svg xmlns="http://www.w3.org/2000/svg" width="42.165" height="42.265" viewBox="0 0 42.165 42.265">
  <path id="_56bdce19a8c48f73e6f40cee79dfe7ff" data-name="56bdce19a8c48f73e6f40cee79dfe7ff" d="M33.9,28.571l-3.527,1.987a2.225,2.225,0,0,1-2.665-.366l-11.77-11.77a2.226,2.226,0,0,1-.366-2.665l1.987-3.527a3.336,3.336,0,0,0-.548-4L11.725,2.948a3.336,3.336,0,0,0-4.719,0l-2.4,2.4A8.9,8.9,0,0,0,3.269,16.217l1.2,2.007A69.754,69.754,0,0,0,29.679,42.9l.238.137a8.915,8.915,0,0,0,10.763-1.4l2.506-2.506a3.336,3.336,0,0,0,0-4.719L37.9,29.121a3.336,3.336,0,0,0-4-.55Z" transform="translate(-2 -1.97)" opacity="0.5"/>
</svg>
