<svg xmlns="http://www.w3.org/2000/svg" width="30" height="30" viewBox="0 0 30 30">
  <path id="investment-analysis-icon" d="M27.989,12.7V29.5c0,.275-.16.5-.354.5H24.586c-.193,0-.354-.226-.354-.5V17.006c.622-.867,1.387-1.915,2.168-2.985l1.231-1.69a3.3,3.3,0,0,0,.357.373ZM11.544,7.8l2.347-2.925c1.784,2.489,3.513,5.5,5.278,7.981l6.437-9.21L23.533.7,30,0l-.364,9.386L27.648,6.553c-1.428,2.06-4.8,6.6-6.233,8.635-1.806,2.572-2.668,2.618-4.474.046L13.891,10.4l-.592.748q-.137-.423-.3-.827a10.582,10.582,0,0,0-.775-1.55l0,0a8.681,8.681,0,0,0-.683-.962ZM7.4,7.9a3.714,3.714,0,0,0-1.984.364L5.4,8.274A5.087,5.087,0,0,0,3.68,9.688a7.585,7.585,0,0,0-1.224,2.261A9.8,9.8,0,0,0,1.935,14.7a10.349,10.349,0,0,0,.113,2.1,9.428,9.428,0,0,0,.44,1.726L.077,21.816a.462.462,0,0,0-.009.495l1.365,2.034a.2.2,0,0,0,.346.012L4.1,21.166a4.869,4.869,0,0,0,1.139.863,3.873,3.873,0,0,0,1.468.454,3.716,3.716,0,0,0,1.983-.364A5.079,5.079,0,0,0,10.427,20.7a7.587,7.587,0,0,0,1.223-2.26,9.773,9.773,0,0,0,.522-2.75,10.193,10.193,0,0,0-.256-2.825l-.005-.019a8.475,8.475,0,0,0-.994-2.454A5.849,5.849,0,0,0,9.332,8.645,4,4,0,0,0,7.4,7.9ZM6.562,18.041a3.758,3.758,0,0,1-.88-.223V16.634a5.559,5.559,0,0,0,1.538.043c.24-.078.213-.616.055-.684-.19-.084-.588.017-.908-.115a1.047,1.047,0,0,1-.413-.3A1.377,1.377,0,0,1,5.7,15.02a3.365,3.365,0,0,1-.083-.8v-.406c0-.867.336-1.384.947-1.53v-.622h.871v.6a4.5,4.5,0,0,1,.875.222v1.186A4.917,4.917,0,0,0,6.9,13.621a.269.269,0,0,0-.082.036c-.142.1-.137.651.038.716a1.741,1.741,0,0,0,.473.02,1.138,1.138,0,0,1,.351.052.9.9,0,0,1,.293.159A1.758,1.758,0,0,1,8.5,16v.406a4.142,4.142,0,0,1-.045.644,1.035,1.035,0,0,1-1.022.984v.671H6.562v-.665ZM4.361,10.8A4.06,4.06,0,0,1,5.746,9.665,2.968,2.968,0,0,1,7.33,9.376a3.2,3.2,0,0,1,1.542.591,4.685,4.685,0,0,1,1.265,1.392l.012.019a6.8,6.8,0,0,1,.785,1.956l0,.017a8.155,8.155,0,0,1,.2,2.237,7.823,7.823,0,0,1-.414,2.194,6.065,6.065,0,0,1-.978,1.8A4.058,4.058,0,0,1,8.36,20.72a2.969,2.969,0,0,1-1.584.288,3.192,3.192,0,0,1-1.541-.59l-.012-.008a5.7,5.7,0,0,1-2.051-3.358l0-.017a8.157,8.157,0,0,1-.2-2.237,7.821,7.821,0,0,1,.415-2.2,6.043,6.043,0,0,1,.977-1.8ZM9.59,24.272V29.5c0,.276-.16.5-.354.5H6.188c-.194,0-.354-.226-.354-.5V24.815a5.063,5.063,0,0,0,.756.131,4.837,4.837,0,0,0,1.337-.062,5.179,5.179,0,0,0,1.31-.427q.178-.085.352-.184ZM15.723,19.2V29.5c0,.276-.16.5-.354.5H12.321c-.194,0-.354-.226-.354-.5V22.013A10.54,10.54,0,0,0,13.2,19.529a12.522,12.522,0,0,0,.478-1.79c.076-.4.133-.808.172-1.219l.814,1.289q.051.08.1.157C15.1,18.428,15.412,18.839,15.723,19.2Zm6.133.767V29.5c0,.276-.16.5-.353.5H18.453c-.194,0-.353-.226-.353-.5V20.961a3.456,3.456,0,0,0,1.113.159,3.929,3.929,0,0,0,2.642-1.154Z" transform="translate(0)" fill="#fff" fill-rule="evenodd"/>
</svg>
