<svg xmlns="http://www.w3.org/2000/svg" width="30" height="30" viewBox="0 0 30 30">
  <path id="_8dcf40c64b73b2bbfd11088026aa5a65" data-name="8dcf40c64b73b2bbfd11088026aa5a65" d="M23.289,7.531a1.719,1.719,0,0,0,2.269-.584,1.714,1.714,0,0,1,2.015-.7,1.572,1.572,0,0,1,1.077,1.758,1.646,1.646,0,0,1-1.641,1.31,1.581,1.581,0,1,0,0,3.158,4.933,4.933,0,0,0,4.92-3.918,4.709,4.709,0,0,0-3.217-5.271,5.136,5.136,0,0,0-6.04,2.084,1.506,1.506,0,0,0-.167,1.2,1.594,1.594,0,0,0,.784.96Zm7.168,11.258a1.653,1.653,0,0,0-1.867,1.358A11.47,11.47,0,0,1,17,29.842H7.685l1.083-1.026a1.521,1.521,0,0,0,0-2.226A10.629,10.629,0,0,1,6.253,14.564,11.691,11.691,0,0,1,17,7.737a1.625,1.625,0,0,0,1.667-1.579A1.625,1.625,0,0,0,17,4.579a15.09,15.09,0,0,0-13.468,8.07,13.6,13.6,0,0,0,1.8,15L2.484,30.3a1.527,1.527,0,0,0-.351,1.72A1.68,1.68,0,0,0,3.667,33H17c7.561,0,13.939-5.326,14.887-12.429a1.518,1.518,0,0,0-.326-1.173,1.689,1.689,0,0,0-1.108-.608ZM27.64,14.163a1.753,1.753,0,0,0-.967-.11l-.3.095-.3.142-.25.205a1.574,1.574,0,0,0-.35.505,1.267,1.267,0,0,0-.133.632,1.67,1.67,0,0,0,3.334,0,1.267,1.267,0,0,0-.134-.6,1.742,1.742,0,0,0-.9-.853Z" transform="translate(-2.005 -2.999)" fill="#fff" opacity="0.9"/>
</svg>
