<svg id="hand-money-income-dollar-icon" xmlns="http://www.w3.org/2000/svg" width="30" height="30" viewBox="0 0 30 30">
  <path id="Path_2" data-name="Path 2" d="M0,13.384H6.063V27.16H0V13.384ZM20.842,6.389c2.2,0,3.985,2.276,3.985,5.089s-1.782,5.089-3.985,5.089-3.985-2.276-3.985-5.089,1.782-5.089,3.985-5.089ZM13.849,0c1.9,0,3.438,1.964,3.438,4.39s-1.538,4.39-3.438,4.39-3.438-1.964-3.438-4.39S11.949,0,13.849,0ZM14.2,5.323a.574.574,0,0,0-.083-.334.785.785,0,0,0-.288-.228c-.137-.072-.264-.143-.378-.215a1.4,1.4,0,0,1-.3-.256,1,1,0,0,1-.193-.334,1.359,1.359,0,0,1-.066-.462,1.139,1.139,0,0,1,.239-.745.937.937,0,0,1,.637-.343V2H14.1v.415a.893.893,0,0,1,.606.4,1.492,1.492,0,0,1,.22.839H14.21a.889.889,0,0,0-.085-.43.263.263,0,0,0-.239-.15.247.247,0,0,0-.215.109.536.536,0,0,0-.076.306.514.514,0,0,0,.088.315.919.919,0,0,0,.283.225c.129.072.254.143.369.218a1.491,1.491,0,0,1,.3.259,1.051,1.051,0,0,1,.2.34,1.354,1.354,0,0,1,.073.465,1.165,1.165,0,0,1-.23.748.893.893,0,0,1-.62.337v.38h-.332V6.4a1,1,0,0,1-.7-.4,1.5,1.5,0,0,1-.247-.895h.711a.853.853,0,0,0,.1.468.343.343,0,0,0,.3.162.27.27,0,0,0,.225-.109.525.525,0,0,0,.085-.3Zm7.047,7.234a.679.679,0,0,0-.1-.387.892.892,0,0,0-.335-.265c-.159-.081-.305-.168-.439-.249a1.558,1.558,0,0,1-.349-.3,1.217,1.217,0,0,1-.225-.387,1.564,1.564,0,0,1-.076-.533A1.309,1.309,0,0,1,20,9.576a1.085,1.085,0,0,1,.737-.4V8.709h.388v.483a1.05,1.05,0,0,1,.7.468,1.716,1.716,0,0,1,.256.973h-.825a1.056,1.056,0,0,0-.1-.5.306.306,0,0,0-.278-.175.287.287,0,0,0-.249.128.623.623,0,0,0-.088.355.591.591,0,0,0,.1.365.986.986,0,0,0,.327.259c.151.081.293.168.427.253a1.735,1.735,0,0,1,.347.3,1.271,1.271,0,0,1,.23.393,1.526,1.526,0,0,1,.083.536,1.341,1.341,0,0,1-.266.867,1.031,1.031,0,0,1-.72.39v.44h-.388V13.8a1.156,1.156,0,0,1-.816-.465,1.743,1.743,0,0,1-.283-1.038h.823a.991.991,0,0,0,.122.539.4.4,0,0,0,.349.187.321.321,0,0,0,.261-.125.563.563,0,0,0,.1-.343Zm-.4-5.167c1.765,0,3.2,1.827,3.2,4.085s-1.431,4.085-3.2,4.085-3.2-1.827-3.2-4.085,1.433-4.085,3.2-4.085ZM7.283,26V14.491h4.056A13.874,13.874,0,0,1,16.5,17.456h3.15a1.744,1.744,0,0,1,.786,3.168c-1.1,1.035-2.561.976-4.056.8-1.03-.065-1.074,1.7,0,1.709a11.131,11.131,0,0,0,1.133-.075c1.865,0,3.4-.458,4.339-2.339l.471-1.406L27,16.352c2.344-.985,4.009,2.145,2.283,4.325A60.233,60.233,0,0,1,18.854,28.52c-2.586,2.008-5.171,1.94-7.755,0L7.283,26Z" fill="#fff" fill-rule="evenodd"/>
</svg>
